<?xml version="1.0" encoding="utf-8"?>
<!-- Generator: Adobe Illustrator 12.0.0, SVG Export Plug-In . SVG Version: 6.00 Build 51448)  -->
<!DOCTYPE svg PUBLIC "-//W3C//DTD SVG 1.1//EN" "http://www.w3.org/Graphics/SVG/1.1/DTD/svg11.dtd" [
	<!ENTITY ns_svg "http://www.w3.org/2000/svg">
	<!ENTITY ns_xlink "http://www.w3.org/1999/xlink">
]>
<svg  version="1.1" id="No_Dog" xmlns="&ns_svg;" xmlns:xlink="&ns_xlink;" width="652" height="652" viewBox="0 0 652 652"
	 style="overflow:visible;enable-background:new 0 0 652 652;" xml:space="preserve">
<style type="text/css">
<![CDATA[
	.st0{fill:#1B181C;}
	.st1{fill:#DF222B;}
]]>
</style>
<path class="st0" d="M468,131.6c-2.7,0.1-32.2-0.8-40.4,32.2c-30.8,1.4-54.3,51.8-63.9,59.7c-9.9,8.1-58,35.3-93.3,30.3
	c-35.3-5.1-70.1-0.8-90.2,10.2c-20.1,11-34.2,37.5-41,60.8c-10.7,37-11.9,90.8-29.7,104.6c12.2,2,26.8-3.4,31.4-23.2
	c4.6-19.8,15.3-101.5,23.5-101.5c-6.8,15-0.8,84-3.7,94.4s-12.4,20.7-12.4,25.2c0,4.4,8.3,28.8,10.4,41c2.1,12.2,1.2,40.5,1.2,40.5
	l13.6,13.6h34.8c0,0-0.4-10-5.5-15.1c-4.8-4.8-23.1-9.5-23.1-9.5s-1.6-66,18.9-86.5c37.3-37.3,35.3-43.7,41.6-50
	c8.4-8.4,44.9,11.5,73.3,23.6c15.9,6.8,32.4,8.1,32.4,8.1s4.2,56.5,4.2,63.1s22.1,55.4,22.1,55.4l12.2,12.2h34.5
	c0,0,4-19.5-28.6-24.9c-2.3-2.3-7.4-23.2-7.4-40.1c0-17,9.3-56.8,36.5-101.2c17.2-28.2,7.6-96.1,33.1-114.8c14.7-11,40,15.3,50-2.3
	c6.2,3.7,26.7-9.9,28-27c0.3-3.9-24.9-12.5-33.8-21.3c-3.6-3.6-4.3-10.5-10.6-14.9c-6.3-4.5-18.4-8.3-18.4-8.3s0-10.5,10.5-19.5
	c-5.4-1-16.1,3.4-16.1,3.4S462.9,139.8,468,131.6z"/>
<g>
	<g>
		<g>
			<path class="st1" d="M326,0C146,0,0,146,0,326c0,180,146,326,326,326c180,0,326-146,326-326C652,146,506,0,326,0z M326,584.3
				C183.3,584.3,67.7,468.6,67.7,326C67.7,183.3,183.3,67.7,326,67.7c142.7,0,258.3,115.6,258.3,258.3
				C584.3,468.6,468.6,584.3,326,584.3z"/>
		</g>
	</g>
	<polygon class="st1" points="164.2,113.3 113.3,164.2 487.8,538.7 538.7,487.8 	"/>
</g>
</svg>
