<?xml version="1.0" encoding="utf-8"?>
<!-- Generator: Adobe Illustrator 23.0.3, SVG Export Plug-In . SVG Version: 6.00 Build 0)  -->
<svg version="1.1" xmlns="http://www.w3.org/2000/svg" xmlns:xlink="http://www.w3.org/1999/xlink" x="0px" y="0px"
	 viewBox="0 0 600 600" style="enable-background:new 0 0 600 600;" xml:space="preserve">
<style type="text/css">
	.st0{fill:#FFFFFF;}
	.st1{fill:#B1CEFC;}
	.st2{fill:#EB506E;}
	.st3{fill:#5185EC;}
	.st4{fill:none;}
	.st5{fill:#F7CD5B;}
	.st6{fill:#040844;}
	.st7{fill:#202124;}
	.st8{fill:#EFEFEF;}
	.st9{fill:#BCBCBC;}
	.st10{fill:#F7F7F7;}
	.st11{fill:#C7C8C9;}
	.st12{fill:#EAEAEA;}
	.st13{fill:#FFFFFF;stroke:#202124;stroke-width:0.75;stroke-miterlimit:10;}
	.st14{fill:#FFFFFF;stroke:#202124;stroke-width:0.25;stroke-miterlimit:10;}
</style>
<g id="chair">
	<g>
		<g>
			<path class="st0" d="M489.8,112.1c-3,6.8-3.8,14-4.7,21.4c-1.2,9.1-2.2,18.2-3.3,27.3c-2,18.2-3.8,36.4-5.3,54.7
				c-0.2,1.9,2.8,1.9,3,0c1.4-16.9,3-33.9,4.8-50.8c0.9-8.4,1.9-16.9,3-25.3c1.1-8.6,1.5-17.7,5-25.7
				C493.2,111.9,490.6,110.3,489.8,112.1L489.8,112.1z"/>
		</g>
	</g>
	<path class="st1" d="M484.1,105l-94.7-7.9c-10.7-0.9-20.1,6.9-21.2,17.6L349,296.1c-0.3,2.5,0,4.9,0.6,7.2c-0.6,0-1.1,0.2-1.7,0.4
		l-74.6,27.9c-4.8,1.8-5.1,8.2-1.2,10.7v123.5h7.6v-121l72.4,21.1V430h7.6v-61.9l26.2,7.6v126h7.6V375.1l71.5-38.9
		c0.3-0.2,0.5-0.3,0.8-0.5v117.7h7.6V331.6c3.6-3.1,6.2-7.6,6.8-12.7l22.1-192C503.3,115.9,495.2,105.9,484.1,105z"/>
</g>
<g id="character">
	<g id="leg_right_1_">
		<path class="st2" d="M244.3,429.9c-3.7,1.5-8.6,3.6-14.1,6.3c-15.3,7.6-39.5,22.2-37.8,26.7c1.1,3.2,15.4,2.8,67.2-10.4
			c2.1-6.3,4.3-12.6,6.4-18.9C258.8,432.4,251.5,431.1,244.3,429.9z"/>
		<g>
			<g>
				<path class="st0" d="M229,437.2c2.1,0.6,3.9,1.8,5.3,3.4c0.3,0.4,0.8-0.2,0.5-0.5c-1.5-1.7-3.5-3-5.7-3.6
					C228.7,436.3,228.5,437,229,437.2L229,437.2z"/>
			</g>
		</g>
		<g>
			<g>
				<path class="st0" d="M232.8,435c2,0.3,3.7,1.4,4.8,3c0.3,0.4,0.9,0,0.6-0.4c-1.2-1.8-3.1-3-5.2-3.4
					C232.6,434.2,232.4,434.9,232.8,435L232.8,435z"/>
			</g>
		</g>
		<g>
			<g>
				<path class="st0" d="M237.6,433c1.8,0.7,3.4,1.9,4.4,3.6c0.2,0.4,0.9,0,0.6-0.4c-1.1-1.9-2.8-3.2-4.8-3.9
					C237.3,432.1,237.1,432.9,237.6,433L237.6,433z"/>
			</g>
		</g>
		<g>
			<g>
				<path class="st0" d="M238.9,432.2c-1.2-1-2.7-2.2-4.3-1.2c-1.4,0.8-2.6,3.2-2.8,4.8c-0.1,1.2,0.4,1.7,1.6,1.2
					c2.1-0.7,3.8-3.1,4.9-4.9c-0.2-0.1-0.5-0.1-0.7-0.2c0,1.4-0.6,8.6,2.6,7.7c1.3-0.4,1.6-2,1.5-3.2c0-1.8-0.8-3.4-2-4.7
					c-0.3-0.4-0.9,0.2-0.5,0.5c0.8,0.8,1.4,1.8,1.6,2.9c0.1,0.5,0.2,1,0.1,1.5c0,0.5-0.4,3.4-2,1.7c-0.6-0.6-0.6-2.4-0.6-3.2
					c-0.1-1.1,0-2.2,0-3.2c0-0.4-0.5-0.5-0.7-0.2c-0.6,1-1.3,1.9-2,2.7c-0.5,0.5-2.5,2.8-2.9,0.9c-0.2-0.7,1.1-2.3,1.5-2.8
					c1.3-1.7,2.9-1,4.3,0.2C238.7,433,239.2,432.5,238.9,432.2L238.9,432.2z"/>
			</g>
		</g>
		<g>
			<g>
				<path class="st0" d="M215.4,460.4c13.4-2.4,26.8-5.3,40-8.7c0.5-0.1,0.3-0.8-0.2-0.7c-13.2,3.4-26.6,6.2-40,8.7
					C214.7,459.7,214.9,460.4,215.4,460.4L215.4,460.4z"/>
			</g>
		</g>
		<path class="st3" d="M366,266.6c-4.2,2.2-10.1,5.4-17.1,9.2c-3.9,2.2-15.4,8.6-32.3,18.9c-21.3,13-25.3,16.3-29.2,20.6
			c-6.6,7.2-10.5,14.2-11.7,16.6c-3.4,6.4-4.9,11.5-6.2,15.6c-7.3,23.5-6.8,18.6-11.9,36.1c-3.6,12.5-7.7,28.2-11.3,46.5
			c1,1.3,2.5,2.8,4.6,4.1c6,3.7,12.5,2.4,14.3,2c5.6-10.8,10.4-19.8,14-26.4c11.4-20.9,10.8-18.2,24-41.2c0,0,3.2-5.6,11.6-17.2
			c1.1-1.5,2.4-3.4,4.6-5.5c4.6-4.5,9.2-6.6,11.1-7.4c12.9-5.9,11-7.3,35.1-18.6c9-4.2,12.2-5.4,22.1-10.4c2.9-1.4,8.5-4.2,15.4-8.5
			c5.8-3.5,8.7-5.3,12.1-8.5c5.3-5.1,8.1-10.2,9.2-12.2c2.6-5,4.4-8.6,3.7-10.9C426.9,264.8,415,261.3,366,266.6z"/>
		<g>
			<path class="st4" d="M362.7,268.8c-23.7,11.6-46.4,25.2-67.8,40.6c-4.1,2.9-8.1,6-11.4,9.7c-5.1,5.8-8.2,13.2-11,20.4
				c-11.4,29.2-20.1,59.5-26.1,90.3"/>
		</g>
		<g>
			<path class="st4" d="M246.3,430c3.8,4.9,10.4,7.4,16.4,6.3"/>
		</g>
		<g>
			<path class="st4" d="M266,433.6c14.9-27.2,30.7-53.9,47.3-80.1c1.6-2.4,3.1-4.9,5.2-6.9c1.7-1.7,3.7-3,5.7-4.3
				c10.9-7,22.2-13.4,33.8-19c21.4-10.4,44.5-18.7,61.9-35.1"/>
		</g>
	</g>
	<g id="leg_left_1_">
		<path class="st2" d="M323.3,460.3c-2.7,2.3-6.2,5.3-10.1,9.1c-6.2,5.9-26.5,25.3-24.1,29.1c1.6,2.5,14-0.7,57.3-22.8
			c-0.9-6.7-1.9-13.3-2.8-20C336.8,457.2,330.1,458.7,323.3,460.3z"/>
		<g>
			<g>
				<path class="st0" d="M317.3,466c1-0.1,2-0.1,2.9,0.2c0.7,0.2,2.4,0.8,2.7,1.6c0.1-0.2,0.2-0.3,0.4-0.5c0,0,0,0-0.1,0
					c0.1,0.1,0.2,0.2,0.4,0.3c0,0,0,0,0,0c-0.1-0.5-0.8-0.3-0.7,0.2c0,0,0,0,0,0c0,0.1,0.2,0.3,0.4,0.3c0,0,0,0,0.1,0
					c0.2,0,0.5-0.2,0.4-0.5c-0.3-0.9-1.6-1.5-2.4-1.8c-1.3-0.5-2.6-0.7-4-0.5C316.8,465.3,316.8,466.1,317.3,466L317.3,466z"/>
			</g>
		</g>
		<g>
			<g>
				<path class="st0" d="M313.4,469.7c2.4-0.3,4.7,0.7,6.1,2.7c0.3,0.4,0.9,0,0.6-0.4c-1.5-2.2-4.1-3.4-6.8-3.1
					C312.9,469,312.9,469.8,313.4,469.7L313.4,469.7z"/>
			</g>
		</g>
		<g>
			<g>
				<path class="st0" d="M309.2,473.7c2.7-0.7,5.4,0.2,7.2,2.3c0.3,0.4,0.8-0.2,0.5-0.5c-2-2.3-5-3.2-7.9-2.5
					C308.5,473.1,308.7,473.8,309.2,473.7L309.2,473.7z"/>
			</g>
		</g>
		<g>
			<g>
				<path class="st0" d="M321.5,465.1c-1.9-3.5-8.9,0.2-9,3.4c0,1.4,1.3,1.9,2.5,1.6c2.2-0.5,3.9-2.7,5.1-4.5
					c-0.2-0.1-0.5-0.1-0.7-0.2c0.1,1.4,0.7,8.2,3.4,6.7c2.7-1.5,0.8-6.7-1.4-7.7c-0.4-0.2-0.8,0.4-0.4,0.6c1.2,0.6,1.7,1.6,2,2.9
					c0.2,1,0.6,3.1-0.9,3.1c-0.7,0.3-1.1,0-1.1-0.9c-0.1-0.4-0.3-0.9-0.4-1.3c-0.3-1.1-0.5-2.2-0.6-3.3c0-0.4-0.5-0.5-0.7-0.2
					c-0.6,0.9-1.2,1.8-2,2.5c-0.2,0.1-0.3,0.3-0.5,0.4c-1.1,1.2-2,0.9-2.9-1c0.8-1.9,5.6-3.9,6.9-1.7
					C321,465.9,321.7,465.5,321.5,465.1L321.5,465.1z"/>
			</g>
		</g>
		<g>
			<g>
				<path class="st0" d="M322.9,485.4c7.2-3.5,14.2-7.3,21-11.5c0.4-0.3,0-0.9-0.4-0.6c-6.8,4.2-13.8,8-21,11.5
					C322.1,484.9,322.5,485.6,322.9,485.4L322.9,485.4z"/>
			</g>
		</g>
		<path class="st3" d="M455.9,271.2c0.1,2.9,0,6.9-0.5,11.7c-0.6,5.6-1.5,13.5-5.5,22.2c-1.8,3.8-4.5,9.8-10.1,15.2
			c-6.1,5.9-12.1,7.4-21.5,10.7c-11,3.8-21.5,8.8-32.4,13.1c-8.5,3.4-20.7,8.4-35.3,15.3c-0.6,9.8-1.2,19.6-1.9,29.4
			c-1.5,22.5-3.2,44.8-5.1,66.9c-0.6,1.4-2.2,5.1-5.9,6.4c-0.5,0.2-1.7,0.5-5.3,0.1c-2.2-0.2-5.4-0.7-9.1-1.9
			c-4.8-19-9.4-34.1-12.6-44.2c-5.5-17.3-9.7-35-15.2-52.3c-0.8-2.6-2.9-8.9-3.2-17.3c-0.3-6.1-0.8-18.8,7.2-27.4
			c1.3-1.4,2.5-2.4,10.7-6.9c10-5.5,15-8.3,23.1-12c19.1-8.8,35-14.7,37.5-15.6c19.8-7.3,29.8-10.9,40.2-12.8
			C421.2,270,436.5,268.4,455.9,271.2z"/>
		<g>
			<path class="st4" d="M456,279c-3,17.2-6,38.2-24,46.2c-28,12-55,22-82.2,33.8"/>
		</g>
		<g>
			<g>
				<path class="st0" d="M377.7,281.8c-14.5,5-28.7,10.7-42.6,17.1c-7.1,3.3-14,6.8-20.9,10.4c-5.2,2.8-11.9,5.3-15.6,10.1
					c-3.7,4.8-5.3,12.1-6.2,17.9c-1.1,7-0.4,13.8,1.2,20.7c3.6,15.8,8.8,31.3,13.4,46.8c5.4,18.1,10.9,36.2,16.5,54.3
					c0.1,0.5,0.9,0.3,0.7-0.2c-5.8-18.7-11.5-37.4-17.1-56.2c-2.6-8.8-5.1-17.5-7.7-26.3c-2.8-9.7-6.4-19.7-6.9-29.8
					c-0.4-8.7,1.5-22.3,8.2-28.5c3.4-3.1,8.1-5.1,12.1-7.3c3.8-2.1,7.7-4.1,11.6-6c17.3-8.6,35.1-16.1,53.4-22.4
					C378.4,282.4,378.2,281.7,377.7,281.8L377.7,281.8z"/>
			</g>
		</g>
		<g>
			<path class="st4" d="M350.5,359.4c-2.4,31.6-4.9,63.1-7.3,94.7"/>
		</g>
		<g>
			<path class="st4" d="M324.9,461.4c2,0.5,4.1,0.7,6.2,0.8c2.2,0.1,4.4-0.1,6.5-0.8s4-2.1,5.1-4"/>
		</g>
	</g>
	<g id="hand_right">
		<path class="st5" d="M277.7,240.8c-1.8,1.1-4.9,2.8-8.9,3.9c-4.4,1.3-6.1,0.9-10.6,2.5c-3.4,1.2-7.9,2.8-8.4,6
			c-0.2,1.3,0.3,2.4,1,3.8c2.1,4.3,6.1,6.1,7.2,6.6c4.2,1.9,8,1.4,9.6,1.1c1.4-0.1,3.1-0.4,4.7-1.4c3.1-2,3-5,6.2-7.7
			c1.1-0.9,2.6-1.9,4.9-2.6c-0.2-1.4-0.5-3.3-1.3-5.3C280.8,244.5,279,242.2,277.7,240.8z"/>
		<path class="st6" d="M359.2,130.3c-1.2,0.7-2,1.6-3.3,2.9c-4,4.2-5.8,8.5-6.4,10c-3.7,8.9-8.5,17.4-12,26.4
			c-2.3,5.7-5.9,14.8-10.8,26.7c-8.1,7.7-16.4,15.5-24.8,23.4c-8.2,7.6-16.4,15-24.5,22.3c1,0.7,2.3,1.8,3.4,3.4
			c2.2,3.1,2.5,6.2,2.6,7.7c2.6-1,6.2-2.4,10.5-4.2c9.2-4,15.5-7.6,24.3-12.7c1.1-0.6,13.1-7.6,26.4-17.1c2.6-1.9,5.5-4,8.7-7.5
			c1.9-2.2,4.5-5.4,8.5-13.4c2.5-5,4.6-10.6,8.8-21.5c0,0,2.5-6.5,5.8-16c1.9-5.5,2.8-8.1,3.5-11.7c1.4-6.9,2-10.3,0.6-13.2
			C377,128.9,365.4,126.5,359.2,130.3z"/>
		<g>
			<path class="st4" d="M356.6,132.1c-9.5,12.6-15.4,27.5-21.1,42.2c-2.6,6.8-5.3,13.5-7.9,20.3"/>
		</g>
		<g>
			<path class="st4" d="M326.6,196.3c-15.8,15.4-32.1,30.2-48.9,44.5"/>
		</g>
		<g>
			<g>
				<path class="st7" d="M277.1,242.3c3.2,2.1,5.1,5.6,5.2,9.4c0,0.5,0.8,0.5,0.8,0c-0.1-4.1-2.1-7.8-5.5-10.1
					C277,241.4,276.7,242,277.1,242.3L277.1,242.3z"/>
			</g>
		</g>
		<g>
			<path class="st4" d="M285,252.4c20.1-7.3,38.4-19.1,56.2-31c3.4-2.3,6.8-4.6,9.8-7.4c6.9-6.6,10.9-15.6,14.6-24.5
				c4.3-10.4,8.2-21,11.8-31.7"/>
		</g>
		<g>
			<path class="st4" d="M273.9,242.3c-2.4,1.4-5,2.5-7.6,3.2c-3.3,0.9-6.8,1.1-10,2.3c-3.2,1.2-6.3,3.5-7,6.9"/>
		</g>
		<g>
			<path class="st4" d="M281.5,253.4c-1.9,0.8-3.4,2.4-4.6,4.1c-1.2,1.7-2.2,3.6-3.7,5c-1.5,1.5-3.6,2.5-5.6,2.2"/>
		</g>
		<g>
			<g>
				<path class="st7" d="M261.5,265c2.3-4.3,5.9-7.7,10.3-9.9c0.4-0.2,0.1-0.9-0.4-0.6c-4.5,2.2-8.2,5.7-10.6,10.2
					C260.6,265,261.3,265.4,261.5,265L261.5,265z"/>
			</g>
		</g>
		<g>
			<g>
				<path class="st7" d="M258.2,263.8c-0.9-1.3,1.1-4,1.9-5c1.1-1.6,2.6-2.9,4.2-4c0.4-0.3,0-0.9-0.4-0.6c-2,1.4-3.6,3-4.9,5
					c-0.8,1.2-2.4,3.6-1.4,5C257.9,264.6,258.5,264.2,258.2,263.8L258.2,263.8z"/>
			</g>
		</g>
		<g>
			<g>
				<path class="st7" d="M254.4,260.4c1.6-3.5,4.2-6.2,7.5-8c0.4-0.2,0-0.9-0.4-0.6c-3.5,1.8-6.2,4.7-7.8,8.3
					C253.5,260.4,254.2,260.8,254.4,260.4L254.4,260.4z"/>
			</g>
		</g>
		<g>
			<g>
				<path class="st7" d="M251.5,257.2c1.9-2.9,4.8-4.9,8.2-5.8c0.5-0.1,0.3-0.8-0.2-0.7c-3.6,0.9-6.6,3.1-8.6,6.2
					C250.6,257.2,251.2,257.6,251.5,257.2L251.5,257.2z"/>
			</g>
		</g>
	</g>
	<g id="torso">
		<path class="st6" d="M356.6,132.1c-0.3,3.2-0.5,8.1-0.5,14.1c0.1,8.4,0.8,14.7,1.2,18.2c2.3,20.4,4.2,30.1,6.3,48.5
			c1.2,10.5,1.8,15.8,1.9,22.2c0.3,13.3-1.1,24.3-2.4,31.8c2.3,1.7,5.4,4,9.4,6.1c1.6,0.9,8,4.3,17.4,6.7c16.2,4.2,30.3,2.5,34.2,2
			c14.3-1.9,25.2-6.9,31.8-10.5c0.2-6.2,0.3-14.2,0.3-23.7c-0.1-11.6-0.5-20.9-0.9-26.4c-1.5-27-3.5-26.6-6.6-58.6
			c-0.5-5.4-1.4-15.3-6.8-26.6c-1.5-3.2-3-5.7-4-7.3c-7.7-3.3-18.1-6.5-30.5-7.2c-11.9-0.7-20.9,1.2-26,2.3
			C371,125.9,362.6,129.2,356.6,132.1z"/>
		<g>
			<path class="st4" d="M359.2,130.3c3.7-1.9,7.8-2.8,11.9-3.6c11.2-2.4,22.4-4.7,33.8-5c11.4-0.3,23.1,1.5,33.1,7"/>
		</g>
		<g>
			<g>
				<path class="st0" d="M356.6,159.7c2.2,17.4,4.5,34.8,6.5,52.3c2.1,17.7,3.4,35.5,0.3,53.2c-0.1,0.5,0.6,0.7,0.7,0.2
					c3-17.1,1.9-34.3-0.1-51.5c-2.1-18.1-4.5-36.2-6.7-54.2C357.3,159.3,356.5,159.3,356.6,159.7L356.6,159.7z"/>
			</g>
		</g>
		<g>
			<path class="st4" d="M365.3,268.8c25.7,16.4,60.7,18.4,87.6,3.4"/>
		</g>
		<g>
			<path class="st4" d="M440.9,134.2c3.8,7.2,5.5,15.4,6.9,23.5c6.3,35.2,9,71,8.1,106.7"/>
		</g>
	</g>
	<g id="hand_left">
		<path class="st5" d="M358.3,241.7c-1.1-0.4-1.8,0.4-4.2,0.9c-3.2,0.6-5.8-0.1-9.4-1.2c-7.1-2.2-7.8-4.5-12.1-4.4
			c-3.1,0-5.3,1.2-6.3,1.8c-7.8,4.1-9,14-9.1,15.2c0.7,1.7,1.8,3.8,3.5,6c1,1.3,1.9,2.3,2.8,3.2c1-0.6,2.5-1.5,4.4-2.6
			c3.9-2.2,5.9-3.2,7.9-3.5c2.4-0.3,4.3,0.3,6.8,1c3.2,0.9,3.3,1.6,5.5,1.8c2.4,0.3,4.2-0.3,6.6-1c1.5-0.4,3.5-1.2,5.8-2.5
			C361.3,245.5,359.9,242.3,358.3,241.7z"/>
		<path class="st6" d="M358.5,241.5c0.7,1.3,1.4,3,1.9,5c1.1,4.6,0.5,8.5-0.1,10.7c3.3,0.2,7.7,0.4,12.9,0.3
			c15.2-0.2,26.6-2.6,30.1-3.4c2.8-0.6,14.1-3.2,27.7-9.2c2.3-1,8.7-3.9,15.8-9.2c6.1-4.5,8.5-7.7,9.9-11.3c0.9-2.3,1.1-4.2,1.3-6.8
			c0.6-6.3-0.2-11-0.7-14c-1.8-11.3-0.3-9-2.5-24.9c-0.9-6.3-1.5-10.8-2.8-17.1c-1.8-8.8-3.6-13.5-7.1-23c-2.4-6.3-3.4-8.1-5.3-9
			c-5.6-2.5-13.5,4.9-14.7,6c0.1,4.9,0.1,9.9,0,14.9c-0.3,19.9-1.8,38.6-4.1,56c-2.7,2.1-6.8,5.1-12,8.5c-7.9,5.1-13.8,8-29.9,16.1
			C375.1,233.2,367.9,236.8,358.5,241.5z"/>
		<g>
			<g>
				<path class="st0" d="M424.7,135.7c-0.2,23.5-1.5,47-4.1,70.4c-0.1,0.5,0.7,0.5,0.8,0c2.6-23.4,4-46.9,4.1-70.4
					C425.4,135.2,424.7,135.2,424.7,135.7L424.7,135.7z"/>
			</g>
		</g>
		<g>
			<g>
				<path class="st0" d="M358.7,241.8c21-9.8,41.4-20.9,61-33.2c0.4-0.3,0-0.9-0.4-0.6c-19.6,12.4-40,23.5-61,33.2
					C357.9,241.4,358.3,242,358.7,241.8L358.7,241.8z"/>
			</g>
		</g>
		<g>
			<path class="st4" d="M358.3,241.7c2.8,4.3,3.6,9.8,2.2,14.7"/>
		</g>
		<g>
			<path class="st4" d="M439.7,129.7c8.1,11.1,11.3,24.9,13.6,38.5c2.7,16.4,4.3,32.9,4.8,49.5"/>
		</g>
		<g>
			<g>
				<path class="st0" d="M360.6,257.8c20.2,0.7,40.7-1.3,59.8-8.1c8.9-3.2,17.5-7.4,25.3-12.7c6.8-4.7,12.7-10.9,12.8-19.6
					c0-0.5-0.7-0.5-0.8,0c-0.2,11.5-10.5,18.2-19.5,23.3c-7.7,4.4-16,7.8-24.5,10.3c-17.2,5.1-35.3,6.6-53.2,6
					C360.2,257,360.2,257.8,360.6,257.8L360.6,257.8z"/>
			</g>
		</g>
		<g>
			<path class="st4" d="M359.1,257.1c-4.7,2.1-10.2,4-14.9,1.8c-2.1-1-3.9-2.7-6.2-2.8c-1.6-0.1-3.2,0.7-4.6,1.5
				c-3.3,1.8-6.6,3.6-9.9,5.4"/>
		</g>
		<g>
			<g>
				<path class="st7" d="M322.1,261.3c0.8-2.1,2.7-3.5,4.4-4.8c1.5-1.1,3-2.1,4.6-3c0.4-0.2,0-0.9-0.4-0.6c-3.3,1.9-8,4.5-9.4,8.2
					C321.2,261.5,321.9,261.7,322.1,261.3L322.1,261.3z"/>
			</g>
		</g>
		<g>
			<g>
				<path class="st7" d="M320.5,256.8c2.5-3.2,5.7-5.6,9.6-6.9c0.5-0.2,0.3-0.9-0.2-0.7c-4,1.4-7.4,3.8-10,7.2
					C319.6,256.8,320.2,257.2,320.5,256.8L320.5,256.8z"/>
			</g>
		</g>
		<g>
			<g>
				<path class="st7" d="M318.8,253.9c2.1-3.6,5.4-6.1,9.5-7.3c0.5-0.1,0.3-0.9-0.2-0.7c-4.2,1.2-7.7,3.9-9.9,7.7
					C317.9,254,318.6,254.4,318.8,253.9L318.8,253.9z"/>
			</g>
		</g>
		<g>
			<path class="st4" d="M326.3,238.7c0.7-1.3,2.2-2.1,3.7-2.1s3,0.4,4.4,0.9c3.8,1.4,7.6,3.1,11.5,4.2c4,1.1,8.2,1.4,12.1,0.1"/>
		</g>
	</g>
	<g id="head_1_">
		<path class="st3" d="M411.2,101.2c-1.7,8.5-11,13.3-18.1,14.1c-12.2,1.5-24.7-7.9-25.4-16.6c-0.2-2.8,0.7-7.1,3.6-9.3
			c2.4-1.8,4.2-0.8,7.8-1.9c6.7-2,7-7.5,11.1-8.7C397.5,76.7,413.7,88.6,411.2,101.2z"/>
		<path class="st5" d="M387.1,130.2c0.1,0.4,0.4,0.8,0.9,1.2c-0.2,0.1-2,0.7-2.1,2c-0.2,1.4,1.6,2.7,3.1,3.1c2.5,0.6,5-1.4,6.8-2.8
			c1.8-1.4,2.9-3,3.6-4c-0.1-1.2-0.2-2.4-0.4-3.7c-0.4-2.9-1.1-5.6-1.8-7.8C396.5,118.5,385.5,125.9,387.1,130.2z"/>
		<g>
			<g>
				<path class="st7" d="M386,129.2c1,1.5,2,2.9,3.3,4.3c0.3,0.4,0.9-0.2,0.5-0.5c-1.2-1.3-2.2-2.7-3.1-4.1
					C386.4,128.4,385.7,128.8,386,129.2L386,129.2z"/>
			</g>
		</g>
		<g>
			<path class="st4" d="M385.8,133.4c0.1,1.8,2,3.1,3.8,3.2s3.5-0.9,4.9-2c2-1.5,3.8-3.4,5.1-5.6"/>
		</g>
		<path class="st5" d="M370.9,111c-0.2,0.7-0.4,2,0,4.7c0.4,2.9,0.6,4.7,1.6,6.9c0.6,1.3,2.1,4.4,5.5,6.4c3.7,2.2,7.4,1.8,8.8,1.7
			c5.3-0.6,8.6-3.7,9.5-4.7c3.2-3.2,4.2-6.7,4.7-8.3c1.3-4.7,0.4-8.7-0.1-10.5c-0.8-1.3-2.4-3.5-5.1-5.3c-6.5-4.1-13.7-1.6-14.9-1.2
			c-0.4,0.2-5.3,2-8.3,6.4C371.4,109.1,371,110.7,370.9,111z"/>
		<g>
			<path class="st4" d="M370.9,112.6c-0.3,5.7,1.3,11.9,5.7,15.4c4.3,3.4,10.5,3.6,15.4,1.2c6.1-3,10.1-10,9.5-16.8"/>
		</g>
		<g>
			<path class="st4" d="M370.7,112.7c0.5-1.9,1-3.8,2-5.5c1-1.7,2.6-3.1,4.5-3.5c2.9-0.5,5.6,1.5,7.5,3.7c1.6,1.8,3.1,3.9,5.4,4.6
				c2.9,0.8,5.9-1.2,8.1-3.3c1-0.9,2.3-2,3.6-1.5"/>
		</g>
		<g>
			<path class="st4" d="M370.6,113c0.4-5.3,2.9-10.5,7.2-13.7c4.3-3.2,10.3-4.1,15.1-1.7c1.5,0.7,2.8,1.7,4.1,2.7
				c2.1,1.7,4.3,3.7,4.7,6.4"/>
		</g>
		<g>
			<g>
				<path class="st7" d="M376.4,115.2c0.3,2.3,0.6,4.9,1.5,7.1c0.7,1.5,1.9,1.9,3.5,1.8c0.5,0,0.5-0.8,0-0.8
					c-2.3,0.1-2.9-1.6-3.4-3.6c-0.4-1.5-0.6-3-0.8-4.6C377.1,114.7,376.3,114.7,376.4,115.2L376.4,115.2z"/>
			</g>
		</g>
		<g>
			<g>
				<path class="st7" d="M380.8,111.9c0.5-1.3,2.1-1.5,2.9-0.4c0.3,0.4,0.8-0.2,0.5-0.5c-1.3-1.5-3.5-1-4.2,0.8
					C379.9,112.2,380.7,112.4,380.8,111.9L380.8,111.9z"/>
			</g>
		</g>
		
			<ellipse transform="matrix(0.9196 -0.393 0.393 0.9196 -16.1419 156.6669)" class="st7" cx="374.6" cy="117.8" rx="0.9" ry="1.4"/>
		<ellipse transform="matrix(0.9196 -0.393 0.393 0.9196 -14.4357 159.7848)" class="st7" cx="383" cy="115.2" rx="0.9" ry="1.4"/>
		<g>
			<g>
				<path class="st7" d="M372.6,114.4c0.5-1,1.7-1.3,2.5-0.6c0.4,0.3,0.9-0.2,0.5-0.5c-1.2-1-3-0.7-3.7,0.7
					C371.8,114.4,372.4,114.8,372.6,114.4L372.6,114.4z"/>
			</g>
		</g>
		<g>
			<g>
				<path class="st0" d="M373.6,103.8c0.5,0,0.5-0.8,0-0.8C373.1,103,373.1,103.8,373.6,103.8L373.6,103.8z"/>
			</g>
		</g>
		<path class="st3" d="M371,114.3c0-1.7,0.4-4.6,2.4-7.2c0.8-1,1.6-2.1,3.1-2.6c2.5-0.8,5.1,0.8,6,1.4c2.1,1.3,1.9,2.3,4.8,4.5
			c1.8,1.4,2.7,2,3.9,2.2c2.2,0.3,4.5-0.9,5.8-2.2c0.9-0.8,1.2-1.5,2.4-2.1c1-0.5,2-0.7,2.7-0.7c-0.4-1.2-1.1-2.9-2.4-4.6
			c-0.4-0.5-3.1-4-7.7-5.4c-4-1.2-7.3-0.2-12.5,1.5c-6,2-14.3,4.7-14.3,8.9C365.2,108.7,365.4,111.3,371,114.3z"/>
		<path class="st2" d="M381,97.8c1.1-0.1,2.2-0.2,3.5-0.1c4.7,0.3,8.3,2.1,10.4,3.5c-0.2-0.5-1.7-4-5.6-5.2
			C384.8,94.6,381.2,97.6,381,97.8z"/>
	</g>
</g>
<g id="dog">
	<g id="body">
		<path class="st5" d="M479.9,352.9c-9.6,19.3-18.8,40.9-27,64.7c-2.8,8.1-5.3,16-7.6,23.8c-0.5,3-1.2,7.3-1.7,12.5
			c-1.5,13.6-1.4,23.6-1.4,31.9c0.1,11,0.1,24.9,0,44c4.3,3.8,8.3,6.4,11.2,8.1c1.8,1.1,8.2,4.6,17,6.5c5.1,1.1,7.8,0.9,9.8-0.6
			c1.5-1.1,2.2-2.7,2.6-3.8c13.9-6,27.7-12,41.6-18c4.7-42.4,9.4-84.7,14.1-127.1c-0.1-3.7-0.1-7.3-0.2-11
			c-2.9-12.5-5.8-25.1-8.7-37.6C513,348.5,496.5,350.7,479.9,352.9z"/>
		<g>
			<path class="st4" d="M478.6,355.3c-9.9,21.9-19,44.2-27.3,66.8c-2,5.5-4,11-5.4,16.7c-2.1,9.1-2.7,18.4-3.1,27.7
				c-0.9,21.1-1.1,42.3-0.6,63.4"/>
		</g>
		<g>
			<path class="st4" d="M531.3,350.5c1.8,8.3,3.6,16.6,5.4,24.8c0.9,4.1,1.8,8.2,2,12.3c0.2,4.8-0.4,9.5-1,14.2
				c-5.6,41.3-11.5,82.6-17.8,123.8"/>
		</g>
		<g>
			<g>
				<path class="st7" d="M447.3,463.6c1.5-4,3.5-7.7,6.4-10.9c3.9-4.3,11.4-8,15.8-1.7c4.3,6.3,3.5,17,3.1,24.3
					c-0.8,16.5-3,33-4.5,49.5c0,0.5,0.7,0.5,0.8,0c1.1-11.8,2.3-23.7,3.4-35.5c1-10.7,2.3-21.7,0-32.4c-1.3-6.1-4.8-11.5-11.9-9.6
					c-7,1.9-11.5,9.8-13.8,16.1C446.4,463.9,447.1,464.1,447.3,463.6L447.3,463.6z"/>
			</g>
		</g>
		<g>
			<path class="st4" d="M446.3,532.6c8.4,7.5,19.4,12.1,30.6,12.6"/>
		</g>
		<g>
			<g>
				<path class="st7" d="M464.1,527.4c2.9,1.3,5.7,1,8.8,1.1c7.1,0.1,9.5,5.1,9.5,11.5c0,0.5,0.7,0.5,0.8,0c0-3.8-0.6-8.2-3.9-10.7
					c-4.3-3.2-10.1-0.4-14.8-2.6C464.1,526.5,463.7,527.2,464.1,527.4L464.1,527.4z"/>
			</g>
		</g>
		<g>
			<g>
				<path class="st7" d="M469.5,534.2c3.7,1.3,6.4,4.6,6.9,8.5c0.1,0.5,0.8,0.5,0.8,0c-0.5-4.3-3.4-7.8-7.5-9.2
					C469.2,533.3,469,534.1,469.5,534.2L469.5,534.2z"/>
			</g>
		</g>
		<g>
			<g>
				<path class="st7" d="M475.5,533.6c3.2,2.3,3.6,6.4,3.9,10c0,0.5,0.8,0.5,0.8,0c-0.3-3.9-0.9-8.2-4.3-10.7
					C475.5,532.6,475.1,533.3,475.5,533.6L475.5,533.6z"/>
			</g>
		</g>
	</g>
	<g id="leg_left">
		<path class="st5" d="M537.6,398.1c-2.8,43.7-5.6,87.3-8.5,131c1.6,2.5,3.2,5.2,4.7,8.1c1.4,2.6,2.6,5.1,3.8,7.6
			c-1.2,0.6-3,1.3-5.3,1.7c-3.8,0.7-6.8,0.2-7.4,0.1c-4.2-0.7-7.3-2.7-8.9-3.9c-2.5-45.8-5-91.7-7.5-137.5
			C518.3,402.8,528,400.5,537.6,398.1z"/>
		<g>
			<g>
				<path class="st7" d="M537.2,398.1c-4,43.6-6.9,87.2-8.5,131c0,0.5,0.7,0.5,0.8,0c1.6-43.7,4.4-87.4,8.5-131
					C538,397.6,537.3,397.6,537.2,398.1L537.2,398.1z"/>
			</g>
		</g>
		<g>
			<g>
				<path class="st7" d="M520.8,536c1.4-0.9,2.6-1.8,3.8-3c0.5-0.5,1-1.4,1.6-1.9c3.2-2.2,4,0.1,5.1,2c2.3,3.8,4.3,7.8,6.1,11.8
					c0.2,0.4,0.9,0.1,0.6-0.4c-1.4-2.9-2.8-5.8-4.3-8.6c-1-1.9-2.2-5.1-4.1-6.3c-1-0.6-2-0.6-3,0c-0.8,0.5-1.3,1.3-1.8,2
					c-1.3,1.5-2.7,2.7-4.3,3.7C520,535.6,520.3,536.3,520.8,536L520.8,536z"/>
			</g>
		</g>
		<g>
			<g>
				<path class="st7" d="M526.7,546.6c3.1,0.5,6.2,0.3,9.2-0.5c0.5-0.1,0.3-0.9-0.2-0.7c-2.9,0.8-5.9,1-8.8,0.5
					C526.4,545.8,526.2,546.5,526.7,546.6L526.7,546.6z"/>
			</g>
		</g>
	</g>
	<g id="leg_right">
		<path class="st5" d="M469.8,395.1c-1,2.6-0.5,5.8,0.6,12.3c0.8,4.9,1.9,8.5,2.1,9.1c3,9.6,4.1,18.9,15.8,63.1
			c5,18.9,10.7,39.3,17.1,61c-0.1,1.3-0.2,2.7-0.4,4c2.4,0.9,5.7,1.8,9.5,2.2c5,0.5,9.2,0,12.1-0.6c-1.6-2.4-3.3-4.8-4.9-7.3
			c-2.1-3.3-4.2-6.5-6.2-9.7c-0.3-5.6-0.5-11.2-0.7-16.9c-1.4-39.7-1.2-78.2,0.3-115.6c-2.7-2.7-7.8-6.9-15.2-9
			C488.3,384.6,472.8,387.4,469.8,395.1z"/>
		<g>
			<g>
				<path class="st7" d="M470.1,407.5c10.4,44.7,22.1,89.1,35.1,133.2c0.1,0.5,0.9,0.3,0.7-0.2c-13-44-24.7-88.4-35.1-133.2
					C470.7,406.9,470,407.1,470.1,407.5L470.1,407.5z"/>
			</g>
		</g>
		<g>
			<path class="st4" d="M514.9,404.3c-2.7,41.4-2.2,83,1.3,124.4"/>
		</g>
		<g>
			<g>
				<path class="st7" d="M505.9,540.9c1.5-1.8,3.1-3.5,4.6-5.3c1.8-2.1,4.1-6.3,7.2-3.6c1.5,1.3,2.6,4,3.6,5.7
					c1.2,2.2,2.3,4.4,3.3,6.6c0.2,0.4,0.8,0.1,0.6-0.4c-1.5-3.3-3.2-6.5-5.1-9.5c-0.8-1.2-2.3-4.7-3.8-5.2c-1.7-0.5-2.6,1.4-3.7,2.6
					c-2.5,2.8-4.9,5.7-7.4,8.5C505,540.7,505.6,541.2,505.9,540.9L505.9,540.9z"/>
			</g>
		</g>
		<g>
			<g>
				<path class="st7" d="M505.1,545c6,2,12,2.8,18.3,2.4c0.5,0,0.5-0.8,0-0.8c-6.2,0.4-12.2-0.4-18.1-2.4
					C504.8,544.1,504.6,544.8,505.1,545L505.1,545z"/>
			</g>
		</g>
	</g>
	<g id="head">
		<path class="st0" d="M526.5,359.8c0.5,0.5,0,1.8-0.4,2.6c-2.2,5.1-3.3,7.6-4.4,7.7c-1,0.1-2.8-2.1-6.3-6.6
			c-0.6-0.7-1.5-1.8-1.1-2.4c0.4-0.5,1.7,0.3,3.2-0.6c1.8-1.1,1.7-3.4,2.7-3.5c1-0.1,1.1,2,2.9,2.7
			C524.8,360.5,526,359.3,526.5,359.8z"/>
		<path class="st3" d="M479.5,347.7c-0.3,0.4-1,1.2-1.2,2.5c-0.2,1.2,0.1,2.2,0.3,2.6c0.5,1.3,1.3,2.1,1.8,2.5
			c2.8,0.9,6.7,2,11.4,2.5c7.9,1,14,0.1,18-0.4c4.1-0.6,9.6-1.4,16.3-4.3c2.2-1,4-1.9,5.2-2.6c0.1-0.5,0.3-1.3,0.5-2.3
			c0.6-3.2,0.4-3.9,0.3-4.2c-0.1-0.2-0.6-1.6-2.2-2.2c-1.8-0.6-3.7,0.4-3.6,0.7c0,0.2,1,0.2,1,0.3
			C527.3,343.3,504.4,345.5,479.5,347.7z"/>
		<path class="st7" d="M552.7,287.2c-1.8,0.4-3,1.5-3.2,1.7c-1.5,1.4-4.7,3.5-10.8,7.1c0.1,0.6,0.3,2,1.4,3.2c1.3,1.5,3,1.8,3.8,2
			c1.8,0.3,3.4-0.1,4.1-0.3c1.1-1.9,2.1-3.5,2.7-4.7c2.5-4.5,1.2-2.4,2.7-5c1.2-2.1,1.8-3.1,1.5-3.6
			C554.5,286.8,553.3,287.1,552.7,287.2z"/>
		<path class="st5" d="M486.3,268.1c-0.7,4.4-1.4,8-1.8,10.4c-2.8,14.5-4.5,22.8-8.8,32c-1.5,3.3-2.9,6-3.9,7.9
			c-3.6,6.9-5.2,9-6.2,13.2c-0.8,3.3-0.7,6.1-0.6,8c0.1,0.5,1.5,6,6.8,7.9c3.2,1.2,6,0.4,7,0c1.7,0.5,4.1,1.2,7,1.8
			c7.8,1.5,13.8,1,19,0.6c5.3-0.4,12.5-1.4,20.9-3.9c1.2-2.7,2.3-4.8,3-6.2c3.8-7.2,5.7-10.8,6.1-11.5c0.7-0.9,2-2.7,1.8-5
			c-0.1-0.8-0.4-1.4-0.6-1.8c1.4-2.4,2.8-4.8,4.2-7.2c2.6-4.5,5.1-8.9,7.5-13.4c-0.6,0.1-1.4,0.2-2.5,0.1c-1.6-0.1-3.9-0.2-5.2-1.9
			c-0.9-1.2-0.9-2.7-0.7-3.6c-2.6,1.4-5.2,2.9-7.8,4.3c-1.1-1.5-2.2-3.1-3.3-4.6c-0.8-3.5-1.7-7-2.5-10.6c-1.9-8.1-3.6-16.1-5.2-24
			c-1.5,3.4-3,6.8-4.5,10.3c-2.9,6.8-5.7,13.5-8.4,20.2c-4.1,1.1-8.2,2.1-12.3,3.2C492.4,285.6,489.3,276.8,486.3,268.1z"/>
		<g>
			<path class="st4" d="M495.5,294.2c7.7-2,15.4-3.7,23.2-5.1c0.9-0.2,1.9-0.3,2.8-0.1c0.8,0.2,1.5,0.7,2.2,1.2
				c3.4,2.5,6.1,6,7.8,9.9"/>
		</g>
		<g>
			<path class="st4" d="M486.1,268.8c-2,13.9-5.4,27.5-10,40.8"/>
		</g>
		<g>
			<path class="st4" d="M486.9,269.2c3.9,10.2,7.3,20.7,10.1,31.3"/>
		</g>
		<g>
			<path class="st4" d="M507.9,291c4.2-10.1,8.4-20.2,12.7-30.3c2.1,11.7,4.8,23.3,8.1,34.7"/>
		</g>
		<g>
			<g>
				<path class="st7" d="M487.6,283.1c2.1,8.5,2.2,17,0.2,25.6c-0.1,0.5,0.6,0.7,0.7,0.2c2-8.7,2-17.3-0.2-26
					C488.2,282.5,487.5,282.7,487.6,283.1L487.6,283.1z"/>
			</g>
		</g>
		<g>
			<g>
				<path class="st7" d="M486.7,303.2c0.2,2.5-0.3,4.8-1.5,7c-0.2,0.4,0.4,0.8,0.6,0.4c1.3-2.3,1.8-4.8,1.6-7.4
					C487.4,302.7,486.6,302.7,486.7,303.2L486.7,303.2z"/>
			</g>
		</g>
		<g>
			<g>
				<path class="st7" d="M484.1,308.3c-0.8,1.6-1.6,3.2-2.4,4.7c-0.2,0.4,0.4,0.8,0.6,0.4c0.8-1.6,1.6-3.2,2.4-4.7
					C485,308.3,484.3,307.9,484.1,308.3L484.1,308.3z"/>
			</g>
		</g>
		<g>
			<path class="st4" d="M475,313.6c-2.5,3.7-5,7.4-6.9,11.3c-1.9,4-3.3,8.3-3.3,12.8"/>
		</g>
		<g>
			<g>
				<path class="st7" d="M471.2,329.6c-2.4,5.4-2.5,11.2-0.2,16.7c0.2,0.4,0.9,0.2,0.7-0.2c-2.2-5.3-2.2-10.9,0.2-16.1
					C472.1,329.5,471.4,329.2,471.2,329.6L471.2,329.6z"/>
			</g>
		</g>
		<g>
			<g>
				<path class="st7" d="M475.3,336.8c-1.1,3.9-0.5,7.8,1.6,11.2c0.2,0.4,0.9,0,0.6-0.4c-2-3.3-2.5-6.9-1.5-10.6
					C476.2,336.5,475.4,336.3,475.3,336.8L475.3,336.8z"/>
			</g>
		</g>
		<g>
			<path class="st4" d="M507.2,315.7c13.7-8.7,27.3-17.4,41-26c2.2-1.4,4.5-2.8,7-3.2c-1.2,3.9-3.2,7.5-5.3,11.1
				c-4.6,8-9.2,16-13.8,24"/>
		</g>
		<g>
			<g>
				<path class="st7" d="M539,295.4c-0.4,1.9,0.5,3.8,2,4.9c1.8,1.3,4.2,1.4,6.3,1c0.5-0.1,0.3-0.8-0.2-0.7c-3.2,0.6-8.2-0.7-7.4-5
					C539.8,295.2,539.1,295,539,295.4L539,295.4z"/>
			</g>
		</g>
		<g>
			<path class="st4" d="M535.8,321.2c0.6,0.5,0.9,1.3,0.8,2.1c-0.1,0.8-0.4,1.5-0.8,2.2c-3.3,6.6-6.6,13.2-9.9,19.8"/>
		</g>
		<g>
			<path class="st4" d="M478.9,347.5c4.1,1.8,8.8,2,13.3,2.2c12.6,0.5,25.8,0.8,36.8-5.3"/>
		</g>
		<g>
			<path class="st4" d="M479.3,348.3c-1.9,1.9-1,5.4,1.1,7.1c2.1,1.7,5,2,7.7,2.3c14.7,1.2,30.2,0.5,42.9-6.9"/>
		</g>
		<g>
			<path class="st4" d="M527.6,342.4c0.8-0.2,1.5-0.5,2.3-0.4c0.8,0,1.6,0.4,2,1.1c0.3,0.5,0.2,1.1,0.2,1.7
				c-0.1,1.4-0.2,2.8-0.3,4.2"/>
		</g>
		<g>
			<g>
				<path class="st7" d="M523.7,354.6c0,1.1,0,2.1,0,3.2c0,0.5,0.8,0.5,0.8,0c0-1.1,0-2.1,0-3.2
					C524.4,354.1,523.7,354.1,523.7,354.6L523.7,354.6z"/>
			</g>
		</g>
		<g>
			<g>
				<path class="st7" d="M500.9,301.7c3.9,0.7,7.9,1.3,11.9,1.8c0.5,0.1,0.5-0.7,0-0.8c-3.9-0.5-7.8-1.1-11.7-1.8
					C500.6,300.9,500.4,301.6,500.9,301.7L500.9,301.7z"/>
			</g>
		</g>
		<g>
			<g>
				<path class="st7" d="M521.9,301.8c2.3-2,4.5-4.1,6.6-6.3c0.3-0.3-0.2-0.9-0.5-0.5c-2.1,2.2-4.3,4.3-6.6,6.3
					C521,301.5,521.5,302.1,521.9,301.8L521.9,301.8z"/>
			</g>
		</g>
		<g>
			<g>
				<path class="st7" d="M536,320.9c-1.7-0.5-3,0.4-4.3,1.4c-1.7,1.5-3.2,3.1-4.5,5c-0.3,0.4,0.4,0.8,0.6,0.4c1.5-2.1,5-6.9,7.9-6
					C536.2,321.8,536.4,321.1,536,320.9L536,320.9z"/>
			</g>
		</g>
		<ellipse class="st7" cx="510.4" cy="304.9" rx="1.7" ry="2.4"/>
		<ellipse class="st7" cx="524.9" cy="301" rx="1.4" ry="2.2"/>
	</g>
</g>
<g id="details">
	<g id="table">
		<rect x="259.6" y="325.6" class="st8" width="4.6" height="249.3"/>
		<rect x="356.6" y="291.5" class="st8" width="4.9" height="221.3"/>
		<rect x="26.3" y="298.8" class="st8" width="4.6" height="223.2"/>
		<rect x="175.9" y="283.1" class="st8" width="4.6" height="179.1"/>
		<path class="st9" d="M263.7,333.9c-82.9-10-165.8-20-248.7-30c-0.1-1.4-0.2-2.8-0.4-4.1c51.7-6.8,103.4-13.5,155.2-20.3
			c64.8,4.1,129.7,8.2,194.5,12.3c-0.1,1.3-0.1,2.7-0.2,4C330.6,308.5,297.2,321.2,263.7,333.9z"/>
		<polygon class="st10" points="262.7,329.8 16.9,299.5 168.8,275.3 363.1,291.7 		"/>
	</g>
	<g id="laptop">
		<path class="st11" d="M188.2,292c-0.2-1.8,66.6-11.7,66.6-11.7l85.8,7.6l-49.1,18.1L188.2,292z"/>
		<polygon class="st12" points="291.5,306.1 188.2,293.8 178.5,212.5 283,220.4 		"/>
		<g>
			<g>
				<path class="st7" d="M291.8,302.8c10.5-3.5,20.8-7.4,31.1-11.6c0.4-0.2,0.2-0.9-0.2-0.7c-10.2,4.2-20.6,8-31.1,11.6
					C291.1,302.2,291.3,302.9,291.8,302.8L291.8,302.8z"/>
			</g>
		</g>
		<g>
			<g>
				<path class="st7" d="M289.9,288.7c10.9,1.1,21.8,1.8,32.7,2.1c0.5,0,0.5-0.7,0-0.8c-10.9-0.4-21.8-1.1-32.7-2.1
					C289.4,287.9,289.4,288.6,289.9,288.7L289.9,288.7z"/>
			</g>
		</g>
		<g>
			<g>
				<path class="st7" d="M291.1,299.2c8.1-2.6,16.1-5.6,24-8.8c0.4-0.2,0.2-0.9-0.2-0.7c-7.9,3.2-15.9,6.1-24,8.8
					C290.5,298.7,290.7,299.4,291.1,299.2L291.1,299.2z"/>
			</g>
		</g>
		<g>
			<g>
				<path class="st7" d="M290.8,295.8c5.4-1.9,10.8-3.7,16.2-5.6c0.5-0.2,0.3-0.9-0.2-0.7c-5.4,1.9-10.8,3.7-16.2,5.6
					C290.2,295.3,290.4,296,290.8,295.8L290.8,295.8z"/>
			</g>
		</g>
		<g>
			<g>
				<path class="st7" d="M290.3,292.8c2.8-1.1,5.7-2.2,8.5-3.2c0.4-0.2,0.3-0.9-0.2-0.7c-2.8,1.1-5.7,2.2-8.5,3.2
					C289.7,292.3,289.9,293,290.3,292.8L290.3,292.8z"/>
			</g>
		</g>
		<g>
			<g>
				<path class="st7" d="M290.5,296.5c3.8,1,7.7,1.8,11.6,2.4c0.5,0.1,0.7-0.6,0.2-0.7c-3.9-0.6-7.8-1.4-11.6-2.4
					C290.2,295.6,290,296.3,290.5,296.5L290.5,296.5z"/>
			</g>
		</g>
		<g>
			<g>
				<path class="st7" d="M290.5,299.7c1.6,0.8,3.3,1.2,5.1,1.2c0.5,0,0.5-0.7,0-0.8c-1.7,0-3.2-0.4-4.8-1.1
					C290.5,298.9,290.1,299.5,290.5,299.7L290.5,299.7z"/>
			</g>
		</g>
		<g>
			<g>
				<path class="st7" d="M291.7,292.1c6,1,12,2.2,17.9,3.6c0.5,0.1,0.7-0.6,0.2-0.7c-5.9-1.4-11.9-2.6-17.9-3.6
					C291.4,291.3,291.2,292.1,291.7,292.1L291.7,292.1z"/>
			</g>
		</g>
	</g>
	<g id="cup">
		<polygon class="st13" points="147.2,306.7 105.6,306.7 84.8,291.3 126.4,291.3 		"/>
		<polygon class="st7" points="122.8,300.9 100.6,300.9 95.9,264 126.8,264 		"/>
		<path class="st7" d="M133.3,274c-2.3-3.7-6.4-5.5-10.6-5.2c6.7,1.5,10.9,7.6,9.4,13.7c-1.3,5-6.1,8.4-11.6,8.6
			c2.9,0.6,6,0.2,8.8-1.5C134.8,286.2,136.6,279.2,133.3,274z"/>
		<g>
			<g>
				<path class="st7" d="M100.7,218.3c-2,2.5-4.3,5.7-3,9c1.6,4.2,9.5,3.2,5.6,9.8c-1.6,2.7-5.3,5.2-4.5,8.9
					c1.1,5,11.2,3.1,5.7,11.7c-0.3,0.4,0.4,0.8,0.6,0.4c1.4-2.1,3.1-5,1.3-7.4c-0.6-0.8-1.5-1.1-2.4-1.6c-0.8-0.3-1.7-0.7-2.5-1
					c-0.3-2-0.7-4.1-1-6.1c0.3-1.6,2.4-3.2,3.3-4.3c1.3-1.6,2.9-3.3,1.5-5.4c-0.6-0.9-1.8-1.4-2.8-1.8c-0.7-0.3-1.5-0.5-2.1-1
					c-4.6-3.5-1.6-7.7,0.7-10.6C101.5,218.4,101,217.9,100.7,218.3L100.7,218.3z"/>
			</g>
		</g>
		<g>
			<g>
				<path class="st7" d="M120.1,241.3c-2.8,1.8-8.1,6.7-5.6,10.6c0.7,1.1,1.3,0.8,2.2,1.7c0.5,0.2,0.9,0.4,1.4,0.6
					c3.2,2.6,3.9,5.2,2,7.6c-1.1,3.5-2.9,5.7-2.7,9.6c0,0.5,0.8,0.5,0.8,0c-0.2-4.7,2.5-7.7,4-11.8c0.4-1,0.7-1.7,0.4-2.8
					c-0.5-1.7-1.8-1.8-2.9-2.8c-2.3-2-7.7,2.2-3.8-7.5c0.8-1.9,3.1-3.5,4.6-4.5C120.9,241.7,120.5,241.1,120.1,241.3L120.1,241.3z"
					/>
			</g>
		</g>
		<g>
			<g>
				<path class="st7" d="M112.8,221c-0.9,1.5-2.5,2.7-1.8,4.6c1.3,3.2,6.2,4.9,4,9.2c-0.2,0.4,0.4,0.8,0.6,0.4
					c0.9-1.8,0.7-3.5-0.3-5.2c-0.5-0.9-1.3-1.7-1.9-2.5c-1.6-1.8-1.2-4.2,0-6.1C113.7,221,113.1,220.6,112.8,221L112.8,221z"/>
			</g>
		</g>
	</g>
	<g id="notebook">
		<g>
			<g>
				<path class="st7" d="M214.3,317.1c10.1-1.8,20.1-3.9,30.1-6.1c0.5-0.1,0.3-0.8-0.2-0.7c-10,2.3-20,4.3-30.1,6.1
					C213.6,316.4,213.8,317.1,214.3,317.1L214.3,317.1z"/>
			</g>
		</g>
		<g>
			<g>
				<path class="st7" d="M214.5,315.3c4.8-0.8,9.6-1.7,14.4-2.8c0.5-0.1,0.3-0.8-0.2-0.7c-4.8,1.1-9.5,2-14.4,2.8
					C213.9,314.7,214.1,315.4,214.5,315.3L214.5,315.3z"/>
			</g>
		</g>
		<g>
			<g>
				<path class="st7" d="M231.2,312.4c4.4-1,8.8-2,13.3-3c0.5-0.1,0.3-0.8-0.2-0.7c-4.4,1-8.8,2-13.3,3
					C230.5,311.8,230.7,312.5,231.2,312.4L231.2,312.4z"/>
			</g>
		</g>
		<path class="st2" d="M212.8,316.7c-18.7-3.4-37.4-6.8-56-10.2c0-1,0-2.1,0-3.1c10.1-1.8,20.2-3.6,30.3-5.4
			c19.6,3.3,39.2,6.7,58.7,10c-10.9,2-21.9,4-32.8,6.1C213,315,212.9,315.9,212.8,316.7z"/>
		<polygon class="st14" points="194.2,300.1 177.9,304.8 169.7,303.2 187.5,298.9 		"/>
	</g>
</g>
</svg>
