<?xml version="1.0" standalone="no"?><svg xmlns="http://www.w3.org/2000/svg" viewBox="0 0 1440 320"><path fill="#77b6ea" fill-opacity="1" d="M0,192L24,192C48,192,96,192,144,176C192,160,240,128,288,138.7C336,149,384,203,432,213.3C480,224,528,192,576,181.3C624,171,672,181,720,202.7C768,224,816,256,864,229.3C912,203,960,117,1008,80C1056,43,1104,53,1152,90.7C1200,128,1248,192,1296,218.7C1344,245,1392,235,1416,229.3L1440,224L1440,320L1416,320C1392,320,1344,320,1296,320C1248,320,1200,320,1152,320C1104,320,1056,320,1008,320C960,320,912,320,864,320C816,320,768,320,720,320C672,320,624,320,576,320C528,320,480,320,432,320C384,320,336,320,288,320C240,320,192,320,144,320C96,320,48,320,24,320L0,320Z"></path></svg>