<?xml version="1.0" standalone="no"?><svg xmlns="http://www.w3.org/2000/svg" viewBox="0 0 1440 320"><path fill="#77b6ea" fill-opacity="1" d="M0,96L24,106.7C48,117,96,139,144,133.3C192,128,240,96,288,117.3C336,139,384,213,432,229.3C480,245,528,203,576,197.3C624,192,672,224,720,208C768,192,816,128,864,106.7C912,85,960,107,1008,106.7C1056,107,1104,85,1152,96C1200,107,1248,149,1296,181.3C1344,213,1392,235,1416,245.3L1440,256L1440,320L1416,320C1392,320,1344,320,1296,320C1248,320,1200,320,1152,320C1104,320,1056,320,1008,320C960,320,912,320,864,320C816,320,768,320,720,320C672,320,624,320,576,320C528,320,480,320,432,320C384,320,336,320,288,320C240,320,192,320,144,320C96,320,48,320,24,320L0,320Z"></path></svg>